<svg width="29" height="22" viewBox="0 0 29 22" fill="none" xmlns="http://www.w3.org/2000/svg">
<path d="M28.3333 10.9143C28.3333 10.8455 28.3333 10.7674 28.3302 10.6768C28.3271 10.4236 28.3208 10.1393 28.3146 9.83613C28.2896 8.96426 28.2458 8.09551 28.1771 7.27676C28.0833 6.14863 27.9458 5.20801 27.7583 4.50176C27.5605 3.76473 27.1726 3.09254 26.6336 2.55237C26.0945 2.01221 25.4231 1.623 24.6865 1.42363C23.8021 1.18613 22.0708 1.03926 19.6333 0.948633C18.474 0.904883 17.2333 0.876758 15.9927 0.861133C15.5583 0.854883 15.1552 0.851758 14.7927 0.848633H13.874C13.5115 0.851758 13.1083 0.854883 12.674 0.861133C11.4333 0.876758 10.1927 0.904883 9.03334 0.948633C6.59584 1.04238 4.86147 1.18926 3.98022 1.42363C3.24335 1.62251 2.57169 2.01156 2.03254 2.55179C1.4934 3.09203 1.10572 3.76448 0.908344 4.50176C0.717719 5.20801 0.583344 6.14863 0.489594 7.27676C0.420844 8.09551 0.377093 8.96426 0.352093 9.83613C0.342718 10.1393 0.339593 10.4236 0.336468 10.6768C0.336468 10.7674 0.333344 10.8455 0.333344 10.9143V11.0893C0.333344 11.158 0.333343 11.2361 0.336468 11.3268C0.339593 11.5799 0.345843 11.8643 0.352093 12.1674C0.377093 13.0393 0.420844 13.908 0.489594 14.7268C0.583344 15.8549 0.720844 16.7955 0.908344 17.5018C1.30834 18.9986 2.48334 20.1799 3.98022 20.5799C4.86147 20.8174 6.59584 20.9643 9.03334 21.0549C10.1927 21.0986 11.4333 21.1268 12.674 21.1424C13.1083 21.1486 13.5115 21.1518 13.874 21.1549H14.7927C15.1552 21.1518 15.5583 21.1486 15.9927 21.1424C17.2333 21.1268 18.474 21.0986 19.6333 21.0549C22.0708 20.9611 23.8052 20.8143 24.6865 20.5799C26.1833 20.1799 27.3583 19.0018 27.7583 17.5018C27.949 16.7955 28.0833 15.8549 28.1771 14.7268C28.2458 13.908 28.2896 13.0393 28.3146 12.1674C28.324 11.8643 28.3271 11.5799 28.3302 11.3268C28.3302 11.2361 28.3333 11.158 28.3333 11.0893V10.9143ZM26.0833 11.0768C26.0833 11.1424 26.0833 11.2143 26.0802 11.2986C26.0771 11.5424 26.0708 11.8111 26.0646 12.1018C26.0427 12.933 25.999 13.7643 25.9333 14.5361C25.849 15.5424 25.7302 16.3674 25.5833 16.9205C25.3896 17.6424 24.8208 18.2143 24.1021 18.4049C23.4458 18.5799 21.7927 18.7205 19.5458 18.8049C18.4083 18.8486 17.1833 18.8768 15.9615 18.8924C15.5333 18.8986 15.1365 18.9018 14.7802 18.9018H13.8865L12.7052 18.8924C11.4833 18.8768 10.2615 18.8486 9.12084 18.8049C6.87397 18.7174 5.21772 18.5799 4.56459 18.4049C3.84584 18.2111 3.27709 17.6424 3.08334 16.9205C2.93647 16.3674 2.81772 15.5424 2.73334 14.5361C2.66772 13.7643 2.62709 12.933 2.60209 12.1018C2.59272 11.8111 2.58959 11.5393 2.58647 11.2986C2.58647 11.2143 2.58334 11.1393 2.58334 11.0768V10.9268C2.58334 10.8611 2.58334 10.7893 2.58647 10.7049C2.58959 10.4611 2.59584 10.1924 2.60209 9.90176C2.62397 9.07051 2.66772 8.23926 2.73334 7.46738C2.81772 6.46113 2.93647 5.63613 3.08334 5.08301C3.27709 4.36113 3.84584 3.78926 4.56459 3.59863C5.22084 3.42363 6.87397 3.28301 9.12084 3.19863C10.2583 3.15488 11.4833 3.12676 12.7052 3.11113C13.1333 3.10488 13.5302 3.10176 13.8865 3.10176H14.7802L15.9615 3.11113C17.1833 3.12676 18.4052 3.15488 19.5458 3.19863C21.7927 3.28613 23.449 3.42363 24.1021 3.59863C24.8208 3.79238 25.3896 4.36113 25.5833 5.08301C25.7302 5.63613 25.849 6.46113 25.9333 7.46738C25.999 8.23926 26.0396 9.07051 26.0646 9.90176C26.074 10.1924 26.0771 10.4643 26.0802 10.7049C26.0802 10.7893 26.0833 10.8643 26.0833 10.9268V11.0768ZM11.5521 15.1893L18.8021 10.9705L11.5521 6.81426V15.1893Z" fill="white"/>
</svg>
