<svg width="19" height="22" viewBox="0 0 19 22" fill="none" xmlns="http://www.w3.org/2000/svg">
<g clip-path="url(#clip0_2988_955)">
<path d="M17.2976 5.41969C15.1812 4.95953 13.6044 3.15417 13.4046 0.962992V0.5H9.84741V14.8537C9.84152 16.5328 8.49801 17.8893 6.84658 17.8833C5.91601 17.8798 5.04026 17.4364 4.47709 16.6836C3.47836 15.3469 3.73455 13.4402 5.04894 12.4247C5.82369 11.8263 6.83636 11.6487 7.76384 11.9485V8.27386C4.18837 7.77181 0.889229 10.3113 0.395132 13.9463C0.118499 15.9806 0.782665 18.0304 2.19402 19.4994C4.71716 22.1243 8.8555 22.1724 11.4372 19.6071C12.6955 18.3567 13.4049 16.6436 13.4049 14.8546V7.52016C14.8426 8.5652 16.5662 9.12551 18.3335 9.12236V5.52866C17.9856 5.52898 17.6383 5.49244 17.2979 5.41937L17.2976 5.41969Z" fill="white"/>
</g>
<defs>
<clipPath id="clip0_2988_955">
<rect width="18" height="21" fill="white" transform="translate(0.333374 0.5)"/>
</clipPath>
</defs>
</svg>
