<svg width="21" height="20" viewBox="0 0 21 20" fill="none" xmlns="http://www.w3.org/2000/svg">
<path fill-rule="evenodd" clip-rule="evenodd" d="M10.3334 0C7.61751 0 7.27696 0.0115117 6.21036 0.0601779C5.14597 0.108725 4.41904 0.277786 3.78296 0.525007C3.12538 0.780524 2.5677 1.12246 2.01173 1.67839C1.4558 2.23436 1.11387 2.79203 0.858351 3.44962C0.61113 4.08569 0.442068 4.81263 0.393521 5.87701C0.344855 6.94362 0.333344 7.28416 0.333344 10C0.333344 12.7158 0.344855 13.0564 0.393521 14.123C0.442068 15.1874 0.61113 15.9143 0.858351 16.5504C1.11387 17.208 1.4558 17.7656 2.01173 18.3216C2.5677 18.8775 3.12538 19.2195 3.78296 19.475C4.41904 19.7222 5.14597 19.8913 6.21036 19.9398C7.27696 19.9885 7.61751 20 10.3334 20C13.0492 20 13.3897 19.9885 14.4563 19.9398C15.5207 19.8913 16.2477 19.7222 16.8837 19.475C17.5413 19.2195 18.099 18.8775 18.655 18.3216C19.2109 17.7656 19.5528 17.208 19.8084 16.5504C20.0556 15.9143 20.2246 15.1874 20.2732 14.123C20.3218 13.0564 20.3333 12.7158 20.3333 10C20.3333 7.28416 20.3218 6.94362 20.2732 5.87701C20.2246 4.81263 20.0556 4.08569 19.8084 3.44962C19.5528 2.79203 19.2109 2.23436 18.655 1.67839C18.099 1.12246 17.5413 0.780524 16.8837 0.525007C16.2477 0.277786 15.5207 0.108725 14.4563 0.0601779C13.3897 0.0115117 13.0492 0 10.3334 0ZM10.3326 1.79996C13.0026 1.79996 13.3189 1.81016 14.3734 1.85827C15.3484 1.90273 15.8779 2.06564 16.2302 2.20259C16.697 2.38399 17.0301 2.60069 17.3801 2.95064C17.73 3.30055 17.9467 3.63367 18.1281 4.10045C18.2651 4.45282 18.428 4.98231 18.4724 5.9573C18.5205 7.01176 18.5307 7.32805 18.5307 9.99818C18.5307 12.6683 18.5205 12.9846 18.4724 14.039C18.428 15.014 18.2651 15.5435 18.1281 15.8959C17.9467 16.3626 17.73 16.6958 17.3801 17.0457C17.0301 17.3956 16.697 17.6123 16.2302 17.7937C15.8779 17.9307 15.3484 18.0936 14.3734 18.1381C13.3191 18.1862 13.0028 18.1964 10.3326 18.1964C7.66223 18.1964 7.34601 18.1862 6.29167 18.1381C5.31668 18.0936 4.78719 17.9307 4.43482 17.7937C3.96804 17.6123 3.63492 17.3956 3.28501 17.0457C2.9351 16.6958 2.71836 16.3626 2.53696 15.8959C2.40001 15.5435 2.2371 15.014 2.19264 14.039C2.14453 12.9846 2.13433 12.6683 2.13433 9.99818C2.13433 7.32805 2.14453 7.01176 2.19264 5.9573C2.2371 4.98231 2.40001 4.45282 2.53696 4.10045C2.71836 3.63367 2.93506 3.30055 3.28501 2.95064C3.63492 2.60069 3.96804 2.38399 4.43482 2.20259C4.78719 2.06564 5.31668 1.90273 6.29167 1.85827C7.34613 1.81016 7.66242 1.79996 10.3326 1.79996ZM5.18943 10.0005C5.18943 7.1644 7.48849 4.86534 10.3246 4.86534C13.1606 4.86534 15.4597 7.1644 15.4597 10.0005C15.4597 12.8365 13.1606 15.1356 10.3246 15.1356C7.48849 15.1356 5.18943 12.8365 5.18943 10.0005ZM10.3238 13.3309C8.48279 13.3309 6.99042 11.8386 6.99042 9.99762C6.99042 8.15664 8.48279 6.66427 10.3238 6.66427C12.1647 6.66427 13.6571 8.15664 13.6571 9.99762C13.6571 11.8386 12.1647 13.3309 10.3238 13.3309ZM15.6698 5.86012C16.3326 5.86012 16.8699 5.32289 16.8699 4.66014C16.8699 3.99739 16.3326 3.46012 15.6698 3.46012C15.0071 3.46012 14.4699 3.99739 14.4699 4.66014C14.4699 5.32289 15.0071 5.86012 15.6698 5.86012Z" fill="white"/>
</svg>
